<?xml version="1.0" standalone="no"?>
<!DOCTYPE svg PUBLIC "-//W3C//DTD SVG 20010904//EN"
 "http://www.w3.org/TR/2001/REC-SVG-20010904/DTD/svg10.dtd">
<svg version="1.0" xmlns="http://www.w3.org/2000/svg"
 width="700.000000pt" height="700.000000pt" viewBox="0 0 700.000000 700.000000"
 preserveAspectRatio="xMidYMid meet">
<metadata>
Created by potrace 1.11, written by Peter Selinger 2001-2013
</metadata>
<g transform="translate(0.000000,700.000000) scale(0.100000,-0.100000)"
fill="#000000" stroke="none">
<path d="M3239 6996 c-2 -2 -40 -6 -84 -10 -44 -4 -89 -9 -100 -11 -11 -2 -40
-7 -64 -10 -118 -14 -290 -51 -471 -101 -61 -17 -223 -71 -255 -84 -11 -5 -75
-32 -143 -60 -142 -60 -275 -128 -417 -213 -90 -54 -282 -182 -295 -196 -3 -4
-31 -25 -63 -49 -151 -112 -373 -326 -519 -499 -383 -454 -650 -1006 -758
-1568 -28 -146 -30 -155 -36 -210 -3 -27 -7 -61 -10 -75 -11 -61 -18 -210 -18
-400 -1 -280 8 -383 55 -655 58 -336 213 -757 396 -1079 85 -148 288 -441 349
-503 7 -7 22 -25 34 -40 l21 -27 1199 1199 1199 1199 0 1693 c0 931 -4 1695
-8 1697 -5 3 -10 4 -12 2z"/>
<path d="M3753 6993 c-10 -4 -13 -354 -13 -1626 l0 -1622 1613 1 c886 1 1618
2 1626 3 10 1 12 14 6 64 -3 34 -8 76 -10 92 -4 43 -16 135 -20 154 -1 9 -10
57 -20 106 -33 182 -119 484 -170 600 -8 17 -30 71 -50 120 -40 98 -158 329
-211 413 -19 29 -34 54 -34 56 0 6 -105 159 -154 226 -333 450 -783 827 -1276
1066 -291 141 -639 256 -909 300 -18 3 -42 7 -51 9 -10 2 -40 6 -67 10 -26 4
-59 9 -73 11 -14 2 -56 6 -95 10 -38 4 -72 8 -75 9 -3 1 -11 0 -17 -2z"/>
<path d="M3969 3260 c-4 -3 469 -483 1052 -1065 l1059 -1060 38 40 c131 140
280 344 409 560 65 109 179 338 213 425 11 30 25 64 30 75 42 89 157 488 174
605 3 19 8 46 11 60 13 63 34 232 37 294 l3 69 -1508 1 c-830 1 -1513 -1
-1518 -4z"/>
<path d="M2317 1982 c-609 -609 -1107 -1111 -1106 -1117 0 -5 31 -35 69 -65
38 -30 82 -65 97 -78 16 -13 98 -70 183 -126 279 -186 535 -312 845 -415 170
-56 409 -114 520 -127 28 -3 53 -8 56 -10 4 -2 31 -6 60 -9 30 -3 70 -8 90
-10 179 -23 629 -23 744 0 11 2 43 6 70 9 67 7 307 50 347 62 9 3 26 7 37 9
237 45 661 217 935 378 104 61 304 197 386 262 l71 57 -1144 1144 c-629 629
-1146 1144 -1148 1144 -2 0 -502 -499 -1112 -1108z"/>
</g>
</svg>
